<?xml version="1.0" encoding="UTF-8"?>
<!-- KDBX file icon for 奈娜子密码本. Document plus indigo book, not the KeePassXC green shield. -->
<svg xmlns="http://www.w3.org/2000/svg" viewBox="0 0 128 128">
  <path d="M22 10h52l28 28v78a6 6 0 0 1-6 6H22a6 6 0 0 1-6-6V16a6 6 0 0 1 6-6z" fill="#F4F1EA" stroke="#3C2F7A" stroke-width="3"/>
  <path d="M74 10v22a6 6 0 0 0 6 6h22" fill="#E4D5BE" stroke="#3C2F7A" stroke-width="3"/>
  <path d="M36 58h22c5 7 5 28 0 36H36c-2 0-4-2-4-4V62c0-2 2-4 4-4z" fill="#3C2F7A"/>
  <path d="M78 58H56c-5 7-5 28 0 36h22c2 0 4-2 4-4V62c0-2-2-4-4-4z" fill="#5A4A96"/>
  <rect x="54" y="56" width="6" height="40" rx="1" fill="#C9A45C"/>
  <rect x="48" y="78" width="18" height="12" rx="2" fill="#F7F8FC"/>
</svg>
